<svg width="24" height="26" viewBox="0 0 24 26" fill="none" xmlns="http://www.w3.org/2000/svg">
<mask id="path-1-inside-1_150_419" fill="white">
<path d="M20.8535 0.5H3.1465C1.41163 0.5 0 1.97084 0 3.77839V22.2208C0 24.0288 1.41163 25.5 3.1465 25.5H20.8535C22.5884 25.5 24 24.0292 24 22.2208V3.77839C24 1.97084 22.5887 0.5 20.8535 0.5ZM18.4944 5.79589C18.6572 5.79579 18.8184 5.82915 18.9689 5.89405C19.1193 5.95896 19.256 6.05414 19.371 6.17415C19.4861 6.29415 19.5773 6.43662 19.6394 6.5934C19.7016 6.75017 19.7334 6.91818 19.7331 7.08779C19.7333 7.25733 19.7015 7.42525 19.6393 7.58194C19.5771 7.73862 19.4859 7.881 19.3708 8.0009C19.2558 8.1208 19.1191 8.21587 18.9687 8.28067C18.8183 8.34546 18.6571 8.37871 18.4944 8.3785C18.1656 8.3785 17.8503 8.24245 17.6178 8.00029C17.3853 7.75812 17.2547 7.42967 17.2547 7.0872C17.2547 6.74472 17.3853 6.41628 17.6178 6.17411C17.8503 5.93194 18.1656 5.79589 18.4944 5.79589ZM19.1593 8.88199C19.1578 9.02759 19.1458 9.83129 18.9789 10.0742C18.7946 10.3399 18.494 10.2995 18.494 10.2995C18.494 10.2995 18.1549 10.3116 18.0208 10.0946C17.8882 9.88231 17.8238 9.46083 17.8283 8.88199H19.1593ZM3.68637 3.20269H12.0612V9.23479L11.5722 8.72581V3.71286H4.17311V13.4707H11.5722V10.4031L12.0612 10.9124V13.9817H3.68637V3.20269ZM9.60113 12.3397C9.6274 12.4414 9.61441 12.5497 9.56493 12.6415C9.51545 12.7333 9.43342 12.8013 9.33641 12.8308C9.23941 12.8604 9.13515 12.8492 9.04598 12.7997C8.9568 12.7501 8.8898 12.6662 8.85934 12.5658L7.96044 9.35252H7.6421L6.74283 12.5658C6.71391 12.6682 6.64717 12.7544 6.55726 12.8056C6.46735 12.8569 6.36161 12.8688 6.26324 12.8389C6.21453 12.8241 6.16909 12.7995 6.12953 12.7664C6.08997 12.7333 6.05707 12.6924 6.03272 12.646C6.00836 12.5996 5.99302 12.5487 5.98759 12.4961C5.98215 12.4436 5.98672 12.3904 6.00104 12.3397L6.91123 9.08567V6.9987L6.68067 6.99949L6.67916 6.9987L6.16228 8.83255C6.14114 8.90715 6.09247 8.96998 6.02694 9.00727C5.96141 9.04457 5.88436 9.05328 5.81267 9.03151C5.77716 9.0207 5.74404 9.00269 5.71523 8.97852C5.68641 8.95435 5.66246 8.92449 5.64475 8.89066C5.62704 8.85682 5.61592 8.81968 5.61202 8.78135C5.60812 8.74303 5.61153 8.70428 5.62204 8.66733L6.16379 6.74951C6.37928 6.00388 6.98432 6.02625 6.98432 6.02625H8.61823C8.61823 6.02625 9.22251 6.00388 9.438 6.74951L9.9805 8.66733C9.99932 8.74129 9.98967 8.81999 9.95361 8.88664C9.91754 8.9533 9.85792 9.00266 9.78744 9.0242C9.71696 9.04574 9.64118 9.03776 9.57627 9.00196C9.51135 8.96616 9.46241 8.90538 9.43989 8.83255L8.92225 6.9987L8.92074 6.99949L8.69018 6.9987V9.08685L9.60113 12.3397ZM7.14142 5.12209C7.14142 4.74299 7.43716 4.43454 7.80108 4.43454C7.97228 4.44057 8.13453 4.51564 8.25359 4.64393C8.37265 4.77221 8.4392 4.94366 8.4392 5.12209C8.4392 5.30052 8.37265 5.47196 8.25359 5.60025C8.13453 5.72853 7.97228 5.8036 7.80108 5.80963C7.62613 5.80942 7.4584 5.73691 7.33472 5.608C7.21104 5.47909 7.14152 5.30433 7.14142 5.12209ZM13.3165 16.9167C13.3165 17.6333 12.7544 18.2141 12.0612 18.2141C11.3673 18.2141 10.8052 17.6329 10.8052 16.9167C10.8052 16.2005 11.3673 15.6189 12.0612 15.6189C12.7548 15.6189 13.3165 16.2001 13.3165 16.9167ZM6.86866 16.9281C6.86866 17.271 6.73788 17.5999 6.50508 17.8424C6.27228 18.0849 5.95654 18.2211 5.62731 18.2211C5.29809 18.2211 4.98235 18.0849 4.74955 17.8424C4.51675 17.5999 4.38597 17.271 4.38597 16.9281C4.38597 16.5851 4.51675 16.2562 4.74955 16.0137C4.98235 15.7712 5.29809 15.635 5.62731 15.635C5.95654 15.635 6.27228 15.7712 6.50508 16.0137C6.73788 16.2562 6.86866 16.5851 6.86866 16.9281ZM8.10285 22.9119H3.12616V20.3776C3.12616 19.4636 3.84686 18.7211 4.72541 18.7211H6.44031C7.31848 18.7211 8.10323 19.464 8.10323 20.3776L8.10285 22.9119ZM9.0364 22.9119L10.025 20.1072C10.4209 18.6744 11.5737 18.7183 11.5737 18.7183H12.5521C12.5521 18.7183 13.7042 18.6744 14.1009 20.1072L15.0894 22.9119H9.0364ZM15.2175 12.3181H13.4985C13.4298 12.3183 13.3619 12.3043 13.2984 12.2771C13.235 12.2498 13.1773 12.2097 13.1288 12.1592C13.0802 12.1087 13.0417 12.0487 13.0155 11.9826C12.9893 11.9165 12.9758 11.8457 12.9759 11.7742C12.9759 11.6742 13.0468 11.516 13.0923 11.4379L10.9939 9.25206C10.9742 9.23148 10.9585 9.20704 10.9479 9.18014C10.9372 9.15324 10.9318 9.12441 10.9318 9.09531C10.9319 9.06622 10.9375 9.03742 10.9483 9.01058C10.9591 8.98373 10.9748 8.95937 10.9947 8.9389C11.0144 8.91829 11.0377 8.90193 11.0635 8.89077C11.0893 8.87961 11.1169 8.87387 11.1448 8.87387C11.1727 8.87387 11.2003 8.87961 11.2261 8.89077C11.2519 8.90193 11.2753 8.91829 11.2949 8.9389L13.5 11.2362L15.0612 11.237L16.0904 9.61938C16.2356 9.3925 16.4324 9.20651 16.6632 9.07793C16.894 8.94936 17.1518 8.88218 17.4135 8.88239H17.4923C17.4915 9.04564 17.5039 10.0432 17.8279 10.3952C18.0709 10.6487 18.3279 10.6268 18.3279 10.6268V11.9536C18.2354 11.9934 18.1592 12.0654 18.112 12.1573C18.0649 12.2491 18.0499 12.3552 18.0695 12.4574C18.0891 12.5595 18.1422 12.6514 18.2196 12.7173C18.297 12.7833 18.394 12.8192 18.494 12.8189C18.5937 12.8185 18.6902 12.7823 18.7672 12.7162C18.8441 12.6502 18.8968 12.5585 18.9163 12.4567C18.9358 12.3548 18.9208 12.2491 18.874 12.1574C18.8272 12.0657 18.7514 11.9937 18.6594 11.9536V10.6326C18.6594 10.6326 18.954 10.6601 19.2041 10.3438C19.4438 10.0338 19.4984 9.32623 19.4965 8.90005C20.302 8.90005 20.9831 9.71709 20.9831 10.6256V14.0974H16.6544V10.7119C16.5391 10.892 16.1484 11.4944 15.7789 12.0662C15.6696 12.2373 15.413 12.3193 15.2179 12.3193L15.2175 12.3181ZM19.7414 16.8174C19.7412 17.1604 19.6104 17.4893 19.3776 17.7319C19.1449 17.9746 18.8293 18.1111 18.5 18.1116C18.1705 18.1116 17.8546 17.9753 17.6216 17.7326C17.3886 17.4899 17.2577 17.1608 17.2577 16.8176C17.2577 16.4744 17.3886 16.1452 17.6216 15.9026C17.8546 15.6599 18.1705 15.5235 18.5 15.5235C18.6631 15.5236 18.8245 15.5571 18.9752 15.6222C19.1258 15.6872 19.2627 15.7825 19.3779 15.9027C19.4932 16.0228 19.5846 16.1654 19.647 16.3224C19.7094 16.4793 19.7414 16.6475 19.7414 16.8174ZM20.9993 22.9119H16.0241V20.3776C16.0241 19.4636 16.8073 18.7211 17.687 18.7211H19.3997C20.2786 18.7211 20.9993 19.4636 20.9993 20.3776V22.9119Z"/>
</mask>
<path d="M20.8535 0.5H3.1465C1.41163 0.5 0 1.97084 0 3.77839V22.2208C0 24.0288 1.41163 25.5 3.1465 25.5H20.8535C22.5884 25.5 24 24.0292 24 22.2208V3.77839C24 1.97084 22.5887 0.5 20.8535 0.5ZM18.4944 5.79589C18.6572 5.79579 18.8184 5.82915 18.9689 5.89405C19.1193 5.95896 19.256 6.05414 19.371 6.17415C19.4861 6.29415 19.5773 6.43662 19.6394 6.5934C19.7016 6.75017 19.7334 6.91818 19.7331 7.08779C19.7333 7.25733 19.7015 7.42525 19.6393 7.58194C19.5771 7.73862 19.4859 7.881 19.3708 8.0009C19.2558 8.1208 19.1191 8.21587 18.9687 8.28067C18.8183 8.34546 18.6571 8.37871 18.4944 8.3785C18.1656 8.3785 17.8503 8.24245 17.6178 8.00029C17.3853 7.75812 17.2547 7.42967 17.2547 7.0872C17.2547 6.74472 17.3853 6.41628 17.6178 6.17411C17.8503 5.93194 18.1656 5.79589 18.4944 5.79589ZM19.1593 8.88199C19.1578 9.02759 19.1458 9.83129 18.9789 10.0742C18.7946 10.3399 18.494 10.2995 18.494 10.2995C18.494 10.2995 18.1549 10.3116 18.0208 10.0946C17.8882 9.88231 17.8238 9.46083 17.8283 8.88199H19.1593ZM3.68637 3.20269H12.0612V9.23479L11.5722 8.72581V3.71286H4.17311V13.4707H11.5722V10.4031L12.0612 10.9124V13.9817H3.68637V3.20269ZM9.60113 12.3397C9.6274 12.4414 9.61441 12.5497 9.56493 12.6415C9.51545 12.7333 9.43342 12.8013 9.33641 12.8308C9.23941 12.8604 9.13515 12.8492 9.04598 12.7997C8.9568 12.7501 8.8898 12.6662 8.85934 12.5658L7.96044 9.35252H7.6421L6.74283 12.5658C6.71391 12.6682 6.64717 12.7544 6.55726 12.8056C6.46735 12.8569 6.36161 12.8688 6.26324 12.8389C6.21453 12.8241 6.16909 12.7995 6.12953 12.7664C6.08997 12.7333 6.05707 12.6924 6.03272 12.646C6.00836 12.5996 5.99302 12.5487 5.98759 12.4961C5.98215 12.4436 5.98672 12.3904 6.00104 12.3397L6.91123 9.08567V6.9987L6.68067 6.99949L6.67916 6.9987L6.16228 8.83255C6.14114 8.90715 6.09247 8.96998 6.02694 9.00727C5.96141 9.04457 5.88436 9.05328 5.81267 9.03151C5.77716 9.0207 5.74404 9.00269 5.71523 8.97852C5.68641 8.95435 5.66246 8.92449 5.64475 8.89066C5.62704 8.85682 5.61592 8.81968 5.61202 8.78135C5.60812 8.74303 5.61153 8.70428 5.62204 8.66733L6.16379 6.74951C6.37928 6.00388 6.98432 6.02625 6.98432 6.02625H8.61823C8.61823 6.02625 9.22251 6.00388 9.438 6.74951L9.9805 8.66733C9.99932 8.74129 9.98967 8.81999 9.95361 8.88664C9.91754 8.9533 9.85792 9.00266 9.78744 9.0242C9.71696 9.04574 9.64118 9.03776 9.57627 9.00196C9.51135 8.96616 9.46241 8.90538 9.43989 8.83255L8.92225 6.9987L8.92074 6.99949L8.69018 6.9987V9.08685L9.60113 12.3397ZM7.14142 5.12209C7.14142 4.74299 7.43716 4.43454 7.80108 4.43454C7.97228 4.44057 8.13453 4.51564 8.25359 4.64393C8.37265 4.77221 8.4392 4.94366 8.4392 5.12209C8.4392 5.30052 8.37265 5.47196 8.25359 5.60025C8.13453 5.72853 7.97228 5.8036 7.80108 5.80963C7.62613 5.80942 7.4584 5.73691 7.33472 5.608C7.21104 5.47909 7.14152 5.30433 7.14142 5.12209ZM13.3165 16.9167C13.3165 17.6333 12.7544 18.2141 12.0612 18.2141C11.3673 18.2141 10.8052 17.6329 10.8052 16.9167C10.8052 16.2005 11.3673 15.6189 12.0612 15.6189C12.7548 15.6189 13.3165 16.2001 13.3165 16.9167ZM6.86866 16.9281C6.86866 17.271 6.73788 17.5999 6.50508 17.8424C6.27228 18.0849 5.95654 18.2211 5.62731 18.2211C5.29809 18.2211 4.98235 18.0849 4.74955 17.8424C4.51675 17.5999 4.38597 17.271 4.38597 16.9281C4.38597 16.5851 4.51675 16.2562 4.74955 16.0137C4.98235 15.7712 5.29809 15.635 5.62731 15.635C5.95654 15.635 6.27228 15.7712 6.50508 16.0137C6.73788 16.2562 6.86866 16.5851 6.86866 16.9281ZM8.10285 22.9119H3.12616V20.3776C3.12616 19.4636 3.84686 18.7211 4.72541 18.7211H6.44031C7.31848 18.7211 8.10323 19.464 8.10323 20.3776L8.10285 22.9119ZM9.0364 22.9119L10.025 20.1072C10.4209 18.6744 11.5737 18.7183 11.5737 18.7183H12.5521C12.5521 18.7183 13.7042 18.6744 14.1009 20.1072L15.0894 22.9119H9.0364ZM15.2175 12.3181H13.4985C13.4298 12.3183 13.3619 12.3043 13.2984 12.2771C13.235 12.2498 13.1773 12.2097 13.1288 12.1592C13.0802 12.1087 13.0417 12.0487 13.0155 11.9826C12.9893 11.9165 12.9758 11.8457 12.9759 11.7742C12.9759 11.6742 13.0468 11.516 13.0923 11.4379L10.9939 9.25206C10.9742 9.23148 10.9585 9.20704 10.9479 9.18014C10.9372 9.15324 10.9318 9.12441 10.9318 9.09531C10.9319 9.06622 10.9375 9.03742 10.9483 9.01058C10.9591 8.98373 10.9748 8.95937 10.9947 8.9389C11.0144 8.91829 11.0377 8.90193 11.0635 8.89077C11.0893 8.87961 11.1169 8.87387 11.1448 8.87387C11.1727 8.87387 11.2003 8.87961 11.2261 8.89077C11.2519 8.90193 11.2753 8.91829 11.2949 8.9389L13.5 11.2362L15.0612 11.237L16.0904 9.61938C16.2356 9.3925 16.4324 9.20651 16.6632 9.07793C16.894 8.94936 17.1518 8.88218 17.4135 8.88239H17.4923C17.4915 9.04564 17.5039 10.0432 17.8279 10.3952C18.0709 10.6487 18.3279 10.6268 18.3279 10.6268V11.9536C18.2354 11.9934 18.1592 12.0654 18.112 12.1573C18.0649 12.2491 18.0499 12.3552 18.0695 12.4574C18.0891 12.5595 18.1422 12.6514 18.2196 12.7173C18.297 12.7833 18.394 12.8192 18.494 12.8189C18.5937 12.8185 18.6902 12.7823 18.7672 12.7162C18.8441 12.6502 18.8968 12.5585 18.9163 12.4567C18.9358 12.3548 18.9208 12.2491 18.874 12.1574C18.8272 12.0657 18.7514 11.9937 18.6594 11.9536V10.6326C18.6594 10.6326 18.954 10.6601 19.2041 10.3438C19.4438 10.0338 19.4984 9.32623 19.4965 8.90005C20.302 8.90005 20.9831 9.71709 20.9831 10.6256V14.0974H16.6544V10.7119C16.5391 10.892 16.1484 11.4944 15.7789 12.0662C15.6696 12.2373 15.413 12.3193 15.2179 12.3193L15.2175 12.3181ZM19.7414 16.8174C19.7412 17.1604 19.6104 17.4893 19.3776 17.7319C19.1449 17.9746 18.8293 18.1111 18.5 18.1116C18.1705 18.1116 17.8546 17.9753 17.6216 17.7326C17.3886 17.4899 17.2577 17.1608 17.2577 16.8176C17.2577 16.4744 17.3886 16.1452 17.6216 15.9026C17.8546 15.6599 18.1705 15.5235 18.5 15.5235C18.6631 15.5236 18.8245 15.5571 18.9752 15.6222C19.1258 15.6872 19.2627 15.7825 19.3779 15.9027C19.4932 16.0228 19.5846 16.1654 19.647 16.3224C19.7094 16.4793 19.7414 16.6475 19.7414 16.8174ZM20.9993 22.9119H16.0241V20.3776C16.0241 19.4636 16.8073 18.7211 17.687 18.7211H19.3997C20.2786 18.7211 20.9993 19.4636 20.9993 20.3776V22.9119Z" fill="#526C9D" stroke="black" stroke-width="2" mask="url(#path-1-inside-1_150_419)"/>
</svg>
