<svg width="25" height="26" viewBox="0 0 25 26" fill="none" xmlns="http://www.w3.org/2000/svg">
<path d="M9.72222 13.8889H1.38889C1.15314 13.8889 0.927049 13.7952 0.76035 13.6285C0.59365 13.4618 0.5 13.2357 0.5 13V1.88889C0.5 1.65314 0.593651 1.42705 0.760349 1.26035C0.927048 1.09365 1.15314 1 1.38889 1H9.72222C9.95797 1 10.1841 1.09365 10.3508 1.26035C10.5175 1.42705 10.6111 1.65314 10.6111 1.88889V13C10.6111 13.2357 10.5175 13.4618 10.3508 13.6285C10.1841 13.7952 9.95797 13.8889 9.72222 13.8889ZM0.76035 24.7397C0.593651 24.573 0.5 24.3469 0.5 24.1111V18.5556C0.5 18.3198 0.593651 18.0937 0.760348 17.927C0.927048 17.7603 1.15314 17.6667 1.38889 17.6667H9.72222C9.95797 17.6667 10.1841 17.7603 10.3508 17.927C10.5175 18.0937 10.6111 18.3198 10.6111 18.5556V24.1111C10.6111 24.3469 10.5175 24.573 10.3508 24.7397C10.1841 24.9063 9.95797 25 9.72222 25H1.38889C1.15314 25 0.927048 24.9063 0.76035 24.7397ZM14.6492 24.7397C14.4825 24.573 14.3889 24.3469 14.3889 24.1111V14.3889C14.3889 14.1531 14.4825 13.927 14.6492 13.7603C14.8159 13.5936 15.042 13.5 15.2778 13.5H23.6111C23.8469 13.5 24.073 13.5937 24.2397 13.7603C24.4063 13.927 24.5 14.1531 24.5 14.3889V24.1111C24.5 24.3469 24.4063 24.573 24.2397 24.7397C24.073 24.9063 23.8469 25 23.6111 25H15.2778C15.042 25 14.8159 24.9063 14.6492 24.7397ZM23.6111 9.72222H15.2778C15.042 9.72222 14.8159 9.62857 14.6492 9.46187C14.4825 9.29517 14.3889 9.06908 14.3889 8.83333V1.88889C14.3889 1.65314 14.4825 1.42705 14.6492 1.26035C14.8159 1.09365 15.042 1 15.2778 1H23.6111C23.8469 1 24.073 1.09365 24.2397 1.26035C24.4063 1.42705 24.5 1.65314 24.5 1.88889V8.83333C24.5 9.06908 24.4063 9.29517 24.2397 9.46187C24.073 9.62857 23.8469 9.72222 23.6111 9.72222Z" fill="#526C9D" stroke="black"/>
</svg>
