<svg width="27" height="26" viewBox="0 0 27 26" fill="none" xmlns="http://www.w3.org/2000/svg">
<path d="M17.6667 25.5H9.33333V13.8327C9.33333 13.6117 9.42113 13.3997 9.57741 13.2434C9.73369 13.0871 9.94565 12.9993 10.1667 12.9993H16.8333C17.0543 12.9993 17.2663 13.0871 17.4226 13.2434C17.5789 13.3997 17.6667 13.6117 17.6667 13.8327V25.5ZM25.1667 25.5H17.6667V21.472C17.6667 21.251 17.7545 21.039 17.9107 20.8827C18.067 20.7264 18.279 20.6386 18.5 20.6386H25.1667C25.3877 20.6386 25.5996 20.7264 25.7559 20.8827C25.9122 21.039 26 21.251 26 21.472V24.6666C26 24.8876 25.9122 25.0996 25.7559 25.2559C25.5996 25.4122 25.3877 25.5 25.1667 25.5ZM9.33333 25.5V18.6941C9.33333 18.4731 9.24554 18.2611 9.08926 18.1048C8.93298 17.9485 8.72101 17.8607 8.5 17.8607H1.83333C1.61232 17.8607 1.40036 17.9485 1.24408 18.1048C1.0878 18.2611 1 18.4731 1 18.6941V24.6666C1 24.8876 1.0878 25.0996 1.24408 25.2559C1.40036 25.4122 1.61232 25.5 1.83333 25.5H9.33333ZM11.8417 3.43354L13.1042 0.757013C13.1383 0.680499 13.1938 0.615502 13.264 0.569889C13.3343 0.524275 13.4162 0.5 13.5 0.5C13.5838 0.5 13.6657 0.524275 13.736 0.569889C13.8062 0.615502 13.8617 0.680499 13.8958 0.757013L15.1597 3.43354L17.9819 3.86551C18.3444 3.92107 18.4889 4.38776 18.2264 4.65444L16.1847 6.73789L16.6667 9.67971C16.7278 10.0575 16.35 10.3464 16.025 10.1672L13.5 8.77828L10.975 10.1672C10.6514 10.345 10.2722 10.0575 10.3333 9.67971L10.8153 6.73789L8.77361 4.65444C8.50972 4.38776 8.65556 3.92107 9.01667 3.86551L11.8417 3.43493V3.43354Z" fill="#526C9D" stroke="black" stroke-linecap="round" stroke-linejoin="round"/>
</svg>
