<svg width="158" height="137" viewBox="0 0 158 137" fill="none" xmlns="http://www.w3.org/2000/svg">
<path d="M96.5148 27.2643C92.8328 31.9306 86.5863 35 79.5 35C72.4137 35 66.1672 31.9306 62.4852 27.2643M50.4034 129.242C50.0448 125.404 50.5646 120.377 52.0642 115.058C56.3307 117.585 61.0097 119.54 65.9827 120.811C64.4073 125.638 62.2878 129.721 60.0892 132.479C58.9508 133.907 57.8076 134.959 56.7276 135.583C55.6493 136.205 54.6747 136.38 53.8285 136.137C52.9459 135.885 52.1839 135.173 51.5874 133.987C50.9905 132.801 50.5853 131.188 50.4034 129.242ZM28.5 73C28.5 67.016 29.6394 61.2859 31.7229 55.9945C33.2924 52.0086 35.398 48.2709 37.9567 44.8608C43.8818 36.9642 52.2361 30.8259 61.9847 27.4359C65.7546 32.31 72.2044 35.5 79.5 35.5C86.7956 35.5 93.2455 32.31 97.0153 27.4359C106.606 30.7709 114.846 36.7656 120.753 44.4775C120.753 44.4776 120.753 44.4778 120.753 44.4779C123.496 48.0593 125.735 52.0108 127.372 56.2382C129.395 61.4617 130.5 67.1077 130.5 73C130.5 89.9292 121.378 104.842 107.535 113.521C103.216 116.229 98.4384 118.329 93.3361 119.694C93.2643 119.456 93.1938 119.216 93.1248 118.975L92.1634 119.251C92.2299 119.483 92.2978 119.714 92.3669 119.943C88.2571 120.959 83.9454 121.5 79.5 121.5C75.2791 121.5 71.1786 121.012 67.2572 120.094C67.342 119.815 67.425 119.534 67.5061 119.25L66.5447 118.975C66.46 119.271 66.3731 119.565 66.2842 119.856C61.1691 118.554 56.3713 116.516 52.0242 113.867C37.8685 105.242 28.5 90.1563 28.5 73ZM30.889 55.3848C27.8584 56.0918 24.3046 56.5 20.5 56.5C14.8851 56.5 9.82458 55.611 6.18608 54.1911C4.36527 53.4805 2.92581 52.6468 1.95004 51.7465C0.97479 50.8467 0.5 49.9181 0.5 49C0.5 48.0819 0.97479 47.1533 1.95004 46.2535C2.92581 45.3532 4.36527 44.5195 6.18608 43.8089C9.82458 42.389 14.8851 41.5 20.5 41.5C27.2536 41.5 33.187 42.7856 36.8162 44.7201C34.4095 48.0056 32.4103 51.5827 30.889 55.3848ZM99.5 17.5C99.5 20.8203 98.3797 23.9224 96.4337 26.5475C92.9031 31.3101 86.652 34.5 79.5 34.5C72.348 34.5 66.0969 31.3101 62.5663 26.5475C60.6203 23.9224 59.5 20.8203 59.5 17.5C59.5 8.18244 68.3772 0.5 79.5 0.5C90.6228 0.5 99.5 8.18244 99.5 17.5ZM128.205 55.6225C126.617 51.5898 124.492 47.8076 121.913 44.3545C125.585 42.6236 131.187 41.5 137.5 41.5C143.115 41.5 148.175 42.389 151.814 43.8089C153.635 44.5195 155.074 45.3532 156.05 46.2535C157.025 47.1533 157.5 48.0819 157.5 49C157.5 49.9181 157.025 50.8467 156.05 51.7465C155.074 52.6468 153.635 53.4805 151.814 54.1911C148.175 55.611 143.115 56.5 137.5 56.5C134.145 56.5 130.984 56.1825 128.205 55.6225ZM93.6344 120.649C98.5995 119.317 103.264 117.301 107.507 114.714C107.52 114.758 107.532 114.802 107.545 114.845C109.091 120.243 109.63 125.353 109.266 129.242C109.084 131.188 108.679 132.801 108.082 133.987C107.486 135.172 106.724 135.885 105.841 136.137C104.991 136.381 104.011 136.204 102.926 135.573C101.839 134.942 100.69 133.878 99.5459 132.435C97.3349 129.647 95.2068 125.521 93.6344 120.649Z" fill="#526C9D" stroke="black"/>
</svg>
