<svg width="25" height="26" viewBox="0 0 25 26" fill="none" xmlns="http://www.w3.org/2000/svg">
<path d="M10.6281 2.81296L10.6281 2.81309C10.5106 3.21216 10.3053 3.57988 10.0272 3.88927C9.74905 4.19866 9.40522 4.44188 9.02088 4.6011C8.63654 4.76031 8.22144 4.83148 7.80602 4.80938C7.39059 4.78729 6.98538 4.67249 6.6201 4.4734L6.61896 4.47278L6.13605 4.20796C6.13582 4.20783 6.13559 4.20771 6.13536 4.20758C4.56779 3.35554 2.8564 5.06982 3.7093 6.63408L3.70964 6.6347L3.97361 7.12047C4.82252 8.68125 4.01729 10.6254 2.31334 11.128L2.31296 11.1281L1.7821 11.2843L10.6281 2.81296ZM10.6281 2.81296L10.7843 2.2821L10.6281 2.81296ZM2.31296 14.8719L2.31309 14.8719C2.71216 14.9894 3.07988 15.1947 3.38927 15.4728C3.69866 15.751 3.94188 16.0948 4.1011 16.4791C4.26031 16.8635 4.33148 17.2786 4.30938 17.694C4.28729 18.1094 4.17249 18.5146 3.9734 18.8799L3.97278 18.881L3.70796 19.3639C3.70785 19.3641 3.70775 19.3643 3.70764 19.3645C2.85546 20.9321 4.56978 22.6436 6.13408 21.7907L6.1347 21.7904L6.6201 21.5266C6.98538 21.3275 7.39059 21.2127 7.80602 21.1906C8.22144 21.1685 8.63654 21.2397 9.02088 21.3989C9.40522 21.5581 9.74905 21.8013 10.0272 22.1107C10.3053 22.4201 10.5106 22.7878 10.6281 23.1869L10.6281 23.187L10.7843 23.7179L2.31296 14.8719ZM2.31296 14.8719L1.7821 14.7157C1.78207 14.7157 1.78205 14.7157 1.78202 14.7157M2.31296 14.8719L1.78202 14.7157M14.3719 23.187L14.3719 23.1869C14.4894 22.7878 14.6947 22.4201 14.9728 22.1107C15.251 21.8013 15.5948 21.5581 15.9791 21.3989C16.3635 21.2397 16.7786 21.1685 17.194 21.1906C17.6094 21.2127 18.0146 21.3275 18.3799 21.5266L18.381 21.5272L18.8639 21.792C18.8641 21.7921 18.8643 21.7922 18.8645 21.7923C20.4321 22.6446 22.1436 20.9302 21.2907 19.3659L21.2904 19.3653L21.0266 18.8799C20.8275 18.5146 20.7127 18.1094 20.6906 17.694C20.6685 17.2786 20.7397 16.8635 20.8989 16.4791C21.0581 16.0948 21.3013 15.751 21.6107 15.4728C21.9201 15.1947 22.2878 14.9894 22.6869 14.8719L22.687 14.8719L23.2179 14.7157C24.9272 14.2115 24.9274 11.7889 23.2183 11.2844L14.3719 23.187ZM14.3719 23.187L14.2157 23.7179M14.3719 23.187L14.2157 23.7179M1.78202 14.7157C0.072764 14.2114 0.0726599 11.7889 1.78171 11.2844L1.78202 14.7157ZM14.2157 23.7179C13.7115 25.4272 11.2889 25.4274 10.7844 23.7183L14.2157 23.7179ZM22.687 11.1281L23.2179 11.2843L10.7844 2.28171C11.2889 0.572634 13.7115 0.572764 14.2157 2.2821L14.3719 2.81296L14.3719 2.81309C14.4894 3.21216 14.6947 3.57988 14.9728 3.88927C15.251 4.19866 15.5948 4.44188 15.9791 4.6011C16.3635 4.76031 16.7786 4.83148 17.194 4.80938C17.6094 4.78729 18.0146 4.67249 18.3799 4.4734L18.8653 4.20964L18.8659 4.2093C20.4303 3.35632 22.1448 5.06809 21.2922 6.63577C21.2921 6.63586 21.2921 6.63596 21.292 6.63605L21.0272 7.11896L21.0266 7.1201C20.8275 7.48538 20.7127 7.89059 20.6906 8.30602C20.6685 8.72144 20.7397 9.13654 20.8989 9.52088C21.0581 9.90522 21.3013 10.249 21.6107 10.5272C21.9201 10.8053 22.2878 11.0106 22.6869 11.1281L22.687 11.1281ZM12.5 18.0781H13V18.0503C14.1628 17.9353 15.2562 17.4216 16.0897 16.5881C17.0417 15.6361 17.5766 14.3448 17.5766 12.9984C17.5766 11.652 17.0417 10.3608 16.0897 9.40877C15.1376 8.45673 13.8464 7.92188 12.5 7.92188C11.1532 7.92188 9.86156 8.45689 8.90922 9.40922C7.95689 10.3616 7.42188 11.6532 7.42188 13C7.42188 14.3468 7.95689 15.6384 8.90922 16.5908C9.86156 17.5431 11.1532 18.0781 12.5 18.0781Z" fill="#526C9D" stroke="black"/>
</svg>
