<svg width="25" height="25" viewBox="0 0 26 26" fill="none" xmlns="http://www.w3.org/2000/svg">
<path d="M22.9333 13.635C22.9706 13.2117 22.9333 12.365 22.9333 12.365L25 9.61355C24.7107 8.54207 24.2839 7.51258 23.7301 6.5508L20.3312 6.06524C20.0407 5.75814 19.7419 5.45933 19.4348 5.16883L18.9492 1.76992C17.988 1.21484 16.9584 0.787913 15.8865 0.5L13.135 2.56673C12.7125 2.52937 12.2875 2.52937 11.865 2.56673L9.11355 0.5C8.5 0.500244 6.5 1 6.0508 1.76992L5.56524 5.16883C5.25814 5.45933 4.95933 5.75814 4.66883 6.06524L1.26992 6.5508C0.714843 7.51196 0.287913 8.54161 0 9.61355L2.06673 12.365C2.02938 12.7883 2.06673 13.635 2.06673 13.635L0 16.3865C0.289253 17.4579 0.716113 18.4874 1.26992 19.4492L4.66883 19.9348C4.95933 20.2502 5.25814 20.549 5.56524 20.8312L6.0508 24.2301C7.01196 24.7852 8.04161 25.2121 9.11355 25.5L11.865 23.4333C12.2875 23.4706 12.7125 23.4706 13.135 23.4333L15.8865 25.5C16.9579 25.2107 17.9874 24.7839 18.9492 24.2301L19.4348 20.8312C19.746 20.5448 20.3312 19.9348 20.3312 19.9348L23.7301 19.4492C24.2852 18.488 24.7121 17.4584 25 16.3865L22.9333 13.635ZM12.5 18.9761C11.318 18.9761 10.1626 18.6256 9.17986 17.9689C8.1971 17.3123 7.43113 16.3789 6.97881 15.287C6.52649 14.195 6.40815 12.9934 6.63873 11.8341C6.86932 10.6749 7.43849 9.61004 8.27426 8.77426C9.11004 7.93849 10.1749 7.36932 11.3341 7.13874C12.4934 6.90815 13.695 7.02649 14.787 7.47881C15.8789 7.93113 16.8123 8.6971 17.4689 9.67986C18.1256 10.6626 11.865 11.818 11.865 13C11.865 14.585 17.8465 16.105 16.7257 17.2257C15.605 18.3465 14.085 18.9761 12.5 18.9761Z" fill="#526C9D" stroke="black"/>
</svg>
